<svg xmlns="http://www.w3.org/2000/svg" viewBox="0 0 128 128" width="128" height="128">
  <defs>
    <linearGradient id="bgGradient" x1="0%" y1="0%" x2="0%" y2="100%">
      <stop offset="0%" style="stop-color:#4A90E2;stop-opacity:1" />
      <stop offset="100%" style="stop-color:#357ABD;stop-opacity:1" />
    </linearGradient>
    <linearGradient id="ringGradient" x1="0%" y1="0%" x2="100%" y2="0%">
      <stop offset="0%" style="stop-color:#FFFFFF;stop-opacity:0.8" />
      <stop offset="100%" style="stop-color:#FFFFFF;stop-opacity:0.3" />
    </linearGradient>
  </defs>
  
  <!-- Background circle -->
  <circle cx="64" cy="64" r="60" fill="url(#bgGradient)" stroke="#2E5A8C" stroke-width="2"/>
  
  <!-- Bell body -->
  <path d="M 50 35 L 78 35 L 75 75 Q 74 85 64 85 Q 54 85 53 75 Z" 
        fill="#FFFFFF" opacity="0.95"/>
  
  <!-- Bell highlight -->
  <path d="M 52 38 L 76 38 L 74 72 Q 72 82 64 82 Q 56 82 54 72 Z" 
        fill="url(#ringGradient)"/>
  
  <!-- Bell clapper -->
  <circle cx="64" cy="78" r="3" fill="#F9A825"/>
  
  <!-- Clapper rod -->
  <line x1="64" y1="78" x2="64" y2="95" stroke="#F9A825" stroke-width="2" stroke-linecap="round"/>
  
  <!-- Sound waves -->
  <path d="M 30 50 Q 25 45 20 50" stroke="#4CAF50" stroke-width="2" fill="none" opacity="0.6"/>
  <path d="M 30 60 Q 25 55 20 60" stroke="#4CAF50" stroke-width="2" fill="none" opacity="0.6"/>
  <path d="M 30 70 Q 25 65 20 70" stroke="#4CAF50" stroke-width="2" fill="none" opacity="0.6"/>
  
  <!-- Timer indicator (progress bar) -->
  <rect x="35" y="92" width="58" height="4" rx="2" fill="#4A90E2" opacity="0.3"/>
  <rect x="35" y="92" width="48" height="4" rx="2" fill="#4CAF50"/>
  
  <!-- Bottom glow -->
  <ellipse cx="64" cy="105" rx="45" ry="8" fill="#4CAF50" opacity="0.2"/>
</svg>
